<svg
  style="display:none;"
  xmlns="http://www.w3.org/2000/svg"
  viewBox="0 0 841.9 595.3"
>
<symbol id="chevron_right" wiewBox="0 0 24 24">
<path d="m18.75 36-2.15-2.15 9.9-9.9-9.9-9.9 2.15-2.15L30.8 23.95Z"/>
</symbol>
<symbol id="close_FILLO" wiewBox="0 0 24 24">
<path d="m12.45 37.65-2.1-2.1L21.9 24 10.35 12.45l2.1-2.1L24 21.9l11.55-11.55 2.1 2.1L26.1 24l11.55 11.55-2.1 2.1L24 26.1Z"/>
</symbol>
<symbol id="done_FILLO" wiewBox="0 0 24 24">
<path d="M18.9 35.7 7.7 24.5l2.15-2.15 9.05 9.05 19.2-19.2 2.15 2.15Z"/>
</symbol>
<symbol id="search_FILLO" wiewBox="0 0 24 24">
<path d="M39.8 41.95 26.65 28.8q-1.5 1.3-3.5 2.025-2 .725-4.25.725-5.4 0-9.15-3.75T6 18.75q0-5.3 3.75-9.05 3.75-3.75 9.1-3.75 5.3 0 9.025 3.75 3.725 3.75 3.725 9.05 0 2.15-.7 4.15-.7 2-2.1 3.75L42 39.75Zm-20.95-13.4q4.05 0 6.9-2.875Q28.6 22.8 28.6 18.75t-2.85-6.925Q22.9 8.95 18.85 8.95q-4.1 0-6.975 2.875T9 18.75q0 4.05 2.875 6.925t6.975 2.875Z"/>
</symbol>
<symbol id="toggle_on_FILLO" wiewBox="0 0 24 24">
<path d="M14 36q-5 0-8.5-3.5T2 24q0-5 3.5-8.5T14 12h20q5 0 8.5 3.5T46 24q0 5-3.5 8.5T34 36Zm0-3h20q3.75 0 6.375-2.625T43 24q0-3.75-2.625-6.375T34 15H14q-3.75 0-6.375 2.625T5 24q0 3.75 2.625 6.375T14 33Zm20.05-3.95q2.1 0 3.575-1.475T39.1 24q0-2.1-1.475-3.575T34.05 18.95q-2.1 0-3.575 1.475T29 24q0 2.1 1.475 3.575t3.575 1.475ZM24 24Z"/>
</symbol>
</svg>